<svg xmlns="http://www.w3.org/2000/svg" width="512" height="512" viewBox="0 0 512 512">
<g>
<path d="M 510.48 122.94 C510.84,124.07 511.33,125.00 511.57,125.00 C511.81,125.00 512.00,96.88 512.00,62.50 L 512.00 512.00 L 0.00 512.00 L 0.00 0.00 L 449.33 0.00 C414.87,0.00 386.95,0.28 387.30,0.63 C387.64,0.98 391.20,1.64 395.21,2.12 C405.52,3.33 412.94,4.65 417.00,6.00 C429.51,10.16 441.45,15.99 453.00,23.61 C479.08,40.80 498.59,67.88 507.31,99.00 C509.65,107.33 510.39,112.07 510.10,116.69 C509.95,119.00 510.12,121.81 510.48,122.94 ZM 409.00 423.95 C412.58,424.41 417.52,424.73 420.00,424.65 L 424.50 424.50 L 425.01 88.00 L 418.02 88.00 C409.84,88.00 399.86,89.39 388.00,92.19 C383.33,93.29 378.03,94.43 376.24,94.71 C374.45,94.99 372.73,95.62 372.43,96.11 C372.13,96.60 371.12,97.00 370.19,97.01 C369.26,97.01 367.21,97.68 365.64,98.51 C364.06,99.33 362.33,100.00 361.79,100.00 C358.13,100.00 332.97,114.03 322.53,121.89 C309.52,131.69 289.21,154.08 281.50,167.13 C277.10,174.58 272.54,183.59 269.96,189.94 C268.27,194.10 266.51,198.40 266.05,199.50 C265.25,201.37 263.07,208.96 261.01,217.00 C258.57,226.52 257.84,231.27 256.96,243.37 C255.33,266.00 257.91,286.98 265.17,309.94 C267.09,316.01 276.60,336.55 280.72,343.51 C289.28,358.00 308.96,379.92 322.50,390.06 C334.29,398.89 345.92,405.67 357.50,410.47 C361.35,412.07 364.95,413.66 365.50,414.01 C366.05,414.36 369.42,415.45 373.00,416.43 C376.58,417.42 380.40,418.57 381.50,419.00 C383.76,419.89 399.18,422.66 409.00,423.95 ZM 237.91 419.36 C243.09,421.95 247.81,423.90 248.41,423.70 C249.76,423.25 250.48,90.08 249.13,88.73 C248.13,87.73 231.62,95.61 222.50,101.43 C189.62,122.43 162.26,157.62 150.53,194.00 C149.56,197.02 148.36,200.28 147.88,201.24 C147.40,202.19 147.00,203.91 147.00,205.05 C147.00,206.20 146.57,207.93 146.05,208.91 C145.10,210.68 144.24,215.14 141.47,232.50 C138.91,248.55 139.80,270.53 143.99,294.90 C144.60,298.42 145.52,302.11 146.05,303.09 C146.57,304.07 147.00,306.00 147.00,307.38 C147.00,308.75 147.45,310.16 148.00,310.50 C148.55,310.84 149.00,311.88 149.01,312.81 C149.01,313.74 150.56,318.60 152.45,323.60 C168.18,365.31 199.16,400.02 237.91,419.36 ZM 128.60 416.74 C129.65,418.53 131.06,419.99 131.75,419.99 C132.74,420.00 133.00,386.54 133.00,256.00 C133.00,125.46 132.74,92.00 131.75,92.01 C131.06,92.02 128.63,95.28 126.35,99.26 C117.00,115.60 107.40,138.79 101.63,159.00 C97.60,173.09 97.00,175.51 97.00,177.57 C97.00,178.79 96.31,180.05 95.46,180.38 C94.36,180.80 93.96,182.21 94.08,185.23 C94.17,187.58 93.32,195.12 92.20,202.00 C86.04,239.76 86.76,287.27 94.02,322.00 C101.80,359.23 113.14,390.29 128.60,416.74 ZM 0.02 62.75 C0.03,103.63 0.37,124.98 1.00,124.00 C1.53,123.18 1.98,119.92 1.98,116.76 C2.02,102.62 10.69,78.97 22.81,60.00 C30.73,47.58 50.50,28.40 63.56,20.45 C80.84,9.94 103.64,2.02 116.76,1.98 C119.92,1.98 123.18,1.53 124.00,1.00 C124.98,0.37 103.63,0.03 62.75,0.02 L 0.00 0.00 ZM 0.02 449.25 L 0.00 512.00 L 62.75 511.94 C105.70,511.89 124.71,511.56 123.00,510.87 C121.62,510.32 118.70,509.98 116.50,510.12 C111.15,510.45 98.81,507.92 91.50,505.00 C90.40,504.56 87.93,503.64 86.00,502.95 C79.60,500.67 66.86,494.06 59.72,489.32 C46.01,480.20 31.43,465.33 22.15,451.00 C10.90,433.62 2.02,409.06 1.98,395.24 C1.98,392.08 1.53,388.83 1.00,388.00 C0.37,387.02 0.03,408.37 0.02,449.25 ZM 388.00 510.96 C386.99,511.64 406.89,511.97 449.25,511.98 L 512.00 512.00 L 511.98 449.25 C511.97,407.75 511.64,387.01 510.99,388.00 C510.44,388.83 510.07,392.20 510.16,395.50 C510.44,405.59 505.43,422.38 497.35,438.50 C482.96,467.19 455.18,492.20 425.50,503.18 C411.70,508.29 402.45,510.35 394.50,510.11 C391.75,510.03 388.83,510.41 388.00,510.96 Z" fill="rgb(0,0,0)"/>
<path d="M 388.00 510.96 C388.83,510.41 391.75,510.03 394.50,510.11 C397.13,510.19 399.90,510.02 402.93,509.57 C401.96,509.82 400.91,510.15 400.00,510.50 C397.00,511.66 404.69,511.86 454.25,511.92 L 512.00 512.00 L 449.25 511.98 C406.89,511.97 386.99,511.64 388.00,510.96 ZM 108.33 509.44 C111.60,509.97 114.53,510.24 116.50,510.12 C118.70,509.98 121.62,510.32 123.00,510.87 C124.71,511.56 105.70,511.89 62.75,511.94 L 0.00 512.00 L 0.02 449.25 C0.02,434.80 0.06,422.80 0.15,413.35 L 0.09 452.75 L 0.00 512.00 L 58.25 511.93 C110.04,511.87 116.00,511.71 112.00,510.45 C110.76,510.06 109.45,509.70 108.33,509.44 ZM 510.48 122.94 C510.12,121.81 509.95,119.00 510.10,116.69 C510.30,113.56 510.02,110.37 509.09,106.04 C509.42,107.42 509.74,108.82 510.05,110.25 C510.75,113.41 511.47,116.00 511.66,116.00 C511.85,116.00 512.00,89.90 512.00,58.00 L 512.00 62.50 C512.00,96.88 511.81,125.00 511.57,125.00 C511.33,125.00 510.84,124.07 510.48,122.94 ZM 511.62 397.19 C511.61,397.11 511.60,397.07 511.59,397.08 C511.38,397.29 510.28,401.26 509.03,406.27 C509.85,402.20 510.25,398.55 510.16,395.50 C510.07,392.20 510.44,388.83 510.99,388.00 C511.25,387.60 511.46,390.69 511.62,397.19 ZM 3.67 407.80 C3.12,405.74 2.59,403.64 2.08,401.50 L 0.46 394.67 C0.60,389.93 0.78,387.67 1.00,388.00 C1.53,388.83 1.98,392.08 1.98,395.24 C1.99,398.81 2.59,403.10 3.67,407.80 ZM 103.98 3.71 C106.09,3.16 108.26,2.61 110.50,2.08 L 117.33 0.46 C122.07,0.60 124.33,0.78 124.00,1.00 C123.18,1.53 119.92,1.98 116.76,1.98 C113.14,1.99 108.77,2.61 103.98,3.71 ZM 403.62 3.23 C401.08,2.85 398.27,2.48 395.21,2.12 C391.20,1.64 387.64,0.98 387.30,0.63 C387.20,0.53 389.34,0.44 393.24,0.36 L 399.00 2.04 C400.53,2.48 402.15,2.90 403.62,3.23 ZM 96.67 179.06 C96.25,180.89 95.85,182.63 95.53,184.00 C94.65,187.81 93.84,191.78 93.11,195.87 C93.74,191.12 94.14,186.89 94.08,185.23 C93.96,182.21 94.36,180.80 95.46,180.38 C95.95,180.19 96.39,179.68 96.67,179.06 ZM 0.49 118.48 C0.69,117.87 1.60,113.86 2.53,109.50 C2.65,108.93 2.77,108.37 2.90,107.81 C2.31,111.07 1.99,114.09 1.98,116.76 C1.98,119.92 1.53,123.18 1.00,124.00 C0.80,124.30 0.63,122.44 0.49,118.48 ZM 0.02 62.75 L 0.00 0.00 L 0.08 59.75 C0.11,82.40 0.21,101.99 0.32,111.81 C0.13,101.59 0.02,85.08 0.02,62.75 ZM 98.65 0.15 L 59.25 0.09 L 0.00 0.00 L 62.75 0.02 C77.20,0.02 89.20,0.06 98.65,0.15 ZM 7.04 92.51 C10.43,82.09 14.76,72.78 20.34,64.01 C14.89,73.19 10.28,83.18 7.04,92.51 ZM 413.02 0.12 C423.23,0.04 435.78,0.00 449.33,0.00 L 512.00 0.00 L 452.25 0.07 ZM 454.17 24.39 C453.78,24.13 453.39,23.87 453.00,23.61 C445.11,18.40 437.03,14.03 428.72,10.46 C437.15,13.69 445.86,18.52 454.17,24.39 ZM 64.07 20.14 C71.80,15.23 80.05,11.34 89.70,8.01 C80.99,11.17 71.97,15.38 64.07,20.14 ZM 41.16 474.00 C40.45,473.32 39.75,472.64 39.06,471.95 C28.86,461.79 20.72,450.34 14.27,436.91 C16.68,441.87 19.34,446.66 22.15,451.00 C27.23,458.85 33.91,466.86 41.16,474.00 ZM 86.00 502.95 C79.13,500.51 71.95,496.94 64.87,492.50 C71.95,496.65 80.95,501.15 86.00,502.95 ZM 100.50 162.95 C99.81,165.54 99.18,168.06 98.63,170.50 C98.17,172.50 97.58,175.10 97.00,177.64 C97.00,177.62 97.00,177.60 97.00,177.57 C97.00,175.72 97.49,173.58 100.50,162.95 ZM 419.59 505.27 C413.10,507.49 408.00,508.91 405.84,509.06 C409.88,508.27 414.38,507.03 419.59,505.27 ZM 503.80 88.22 C501.03,80.76 497.62,73.59 493.65,66.81 C497.76,73.77 501.05,80.68 503.80,88.22 ZM 505.18 420.02 C503.16,426.10 500.74,431.74 497.35,438.50 C500.46,432.30 503.11,426.00 505.18,420.02 ZM 414.45 5.27 C412.72,4.83 410.64,4.40 408.22,3.97 C409.50,4.02 411.83,4.53 414.45,5.27 ZM 105.95 509.02 C105.92,509.02 105.89,509.02 105.86,509.02 C105.03,509.01 102.27,508.34 99.26,507.50 C101.47,508.08 103.75,508.60 105.95,509.02 ZM 489.19 59.71 C487.67,57.44 486.07,55.21 484.42,53.04 C485.98,55.07 487.46,57.11 488.83,59.17 C488.95,59.35 489.07,59.53 489.19,59.71 Z" fill="rgb(92,92,92)"/>
<path d="M 393.24 0.36 C397.74,0.26 404.58,0.18 413.02,0.12 L 452.25 0.07 L 512.00 0.00 L 454.25 0.13 C422.49,0.19 398.50,0.57 400.95,0.97 C403.39,1.36 405.57,2.21 405.78,2.84 C405.90,3.21 406.34,3.53 406.92,3.75 C405.88,3.57 404.78,3.40 403.62,3.23 C402.15,2.90 400.53,2.48 399.00,2.04 ZM 143.46 220.34 C142.36,228.20 141.34,239.77 140.39,255.00 C140.10,259.71 140.54,267.74 141.34,275.93 C139.57,259.19 139.60,244.25 141.47,232.50 C142.28,227.43 142.92,223.46 143.46,220.34 ZM 0.49 118.48 C0.43,116.69 0.37,114.46 0.32,111.81 C0.27,107.39 0.22,100.98 0.18,93.20 C0.34,106.40 0.57,114.75 0.84,114.45 C1.29,113.94 2.20,110.97 2.90,107.78 L 2.90 107.81 C2.77,108.37 2.65,108.93 2.53,109.50 C1.60,113.86 0.69,117.87 0.49,118.48 ZM 98.65 0.15 C106.82,0.22 113.08,0.33 117.33,0.46 L 112.99 1.49 C113.74,1.23 114.26,1.00 114.45,0.84 C114.78,0.54 104.47,0.28 88.70,0.13 ZM 1.48 398.99 C1.23,398.25 1.00,397.74 0.84,397.55 C0.54,397.22 0.28,407.53 0.13,423.30 L 0.15 413.35 C0.22,405.18 0.33,398.92 0.46,394.67 ZM 5.77 415.55 C7.91,422.48 10.84,429.87 14.27,436.91 C14.70,437.82 15.15,438.72 15.60,439.60 C11.59,431.95 8.29,423.89 5.77,415.55 ZM 41.16 474.00 C43.33,476.14 45.55,478.20 47.80,480.15 C44.56,477.38 41.45,474.45 38.49,471.38 C38.68,471.57 38.87,471.76 39.06,471.95 C39.75,472.64 40.45,473.32 41.16,474.00 ZM 414.45 5.27 C412.23,4.64 410.22,4.18 408.88,4.02 C410.10,4.14 412.21,4.62 414.57,5.30 ZM 20.16 64.28 C21.02,62.85 21.90,61.42 22.81,60.00 C21.97,61.32 21.14,62.65 20.34,64.01 C20.28,64.10 20.22,64.19 20.16,64.28 ZM 65.32 492.78 C65.02,492.61 64.73,492.43 64.44,492.25 C64.58,492.34 64.72,492.42 64.87,492.50 C65.02,492.60 65.17,492.69 65.32,492.78 Z" fill="rgb(189,189,189)"/>
<path d="M 0.00 454.30 C0.00,422.57 0.38,397.03 0.84,397.55 C1.30,398.07 2.25,401.20 2.95,404.50 C11.50,444.99 38.50,480.15 74.64,497.85 C78.96,499.97 84.07,502.27 86.00,502.95 C87.93,503.64 90.40,504.56 91.50,504.99 C95.33,506.50 104.24,509.00 105.86,509.02 C106.76,509.02 109.53,509.67 112.00,510.45 C116.00,511.71 110.04,511.87 58.25,511.93 L 0.00 512.00 L 0.00 454.30 ZM 400.00 510.50 C401.92,509.76 404.46,509.12 405.64,509.08 C408.22,508.98 416.05,506.66 425.50,503.17 C455.13,492.24 482.96,467.19 497.35,438.50 C502.79,427.65 505.73,419.69 508.57,408.13 C510.00,402.28 511.36,397.31 511.59,397.08 C511.81,396.85 512.00,422.62 512.00,454.33 L 512.00 512.00 L 454.25 511.92 C404.69,511.86 397.00,511.66 400.00,510.50 ZM 409.00 423.95 C399.18,422.66 383.76,419.89 381.50,419.00 C380.40,418.57 376.58,417.42 373.00,416.43 C369.42,415.45 366.05,414.36 365.50,414.01 C364.95,413.66 361.35,412.07 357.50,410.47 C345.92,405.67 334.29,398.89 322.50,390.06 C308.96,379.92 289.28,358.00 280.72,343.51 C276.60,336.55 267.09,316.01 265.17,309.94 C257.91,286.98 255.33,266.00 256.96,243.37 C257.84,231.27 258.57,226.52 261.01,217.00 C263.07,208.96 265.25,201.37 266.05,199.50 C266.51,198.40 268.27,194.10 269.96,189.94 C272.54,183.59 277.10,174.58 281.50,167.13 C289.21,154.08 309.52,131.69 322.53,121.89 C332.97,114.03 358.13,100.00 361.79,100.00 C362.33,100.00 364.06,99.33 365.64,98.51 C367.21,97.68 369.26,97.01 370.19,97.01 C371.12,97.00 372.13,96.60 372.43,96.11 C372.73,95.62 374.45,94.99 376.24,94.71 C378.03,94.43 383.33,93.29 388.00,92.19 C399.86,89.39 409.84,88.00 418.02,88.00 L 425.01 88.00 L 424.75 256.25 L 424.50 424.50 L 420.00 424.65 C417.52,424.73 412.58,424.41 409.00,423.95 ZM 237.91 419.36 C199.16,400.02 168.18,365.31 152.45,323.60 C150.56,318.60 149.01,313.74 149.01,312.81 C149.00,311.88 148.55,310.84 148.00,310.50 C147.45,310.16 147.00,308.75 147.00,307.38 C147.00,306.00 146.57,304.06 146.03,303.06 C143.37,298.09 139.67,266.57 140.39,255.00 C142.05,228.30 143.95,212.83 146.05,208.91 C146.57,207.93 147.00,206.20 147.00,205.05 C147.00,203.91 147.40,202.19 147.88,201.24 C148.36,200.28 149.56,197.02 150.53,194.00 C162.26,157.62 189.62,122.43 222.50,101.43 C231.62,95.61 248.13,87.73 249.13,88.73 C250.48,90.08 249.76,423.25 248.41,423.70 C247.81,423.90 243.09,421.95 237.91,419.36 ZM 128.60 416.74 C113.14,390.29 101.80,359.23 94.02,322.00 C85.55,281.50 86.18,224.25 95.53,184.00 C96.36,180.43 97.76,174.35 98.63,170.50 C103.66,148.22 115.01,119.07 126.35,99.26 C128.63,95.28 131.06,92.02 131.75,92.01 C132.74,92.00 133.00,125.46 133.00,256.00 C133.00,386.54 132.74,420.00 131.75,419.99 C131.06,419.99 129.65,418.53 128.60,416.74 ZM 510.05 110.25 C505.50,89.55 499.52,75.15 488.83,59.17 C474.72,38.07 450.00,18.25 427.50,10.00 C426.40,9.60 424.38,8.79 423.00,8.21 C418.18,6.18 410.62,4.00 408.41,4.00 C407.17,4.00 405.99,3.48 405.78,2.84 C405.57,2.21 403.39,1.36 400.95,0.97 C398.50,0.57 422.49,0.19 454.25,0.13 L 512.00 0.00 L 512.00 58.00 C512.00,89.90 511.85,116.00 511.66,116.00 C511.47,116.00 510.75,113.41 510.05,110.25 ZM 0.00 57.70 L 0.00 0.00 L 57.70 0.00 C89.43,0.00 114.97,0.38 114.45,0.84 C113.93,1.30 110.80,2.24 107.50,2.93 C92.82,6.00 76.81,12.38 63.56,20.45 C50.50,28.40 30.73,47.58 22.81,60.00 C13.12,75.17 6.49,91.04 2.96,107.50 C2.26,110.80 1.30,113.93 0.84,114.45 C0.38,114.97 0.00,89.43 0.00,57.70 Z" fill="rgb(254,254,254)"/>
</g>
</svg>